<?xml version="1.0" encoding="UTF-8"?>
<svg id="_레이어_1" data-name="레이어 1" xmlns="http://www.w3.org/2000/svg" xmlns:xlink="http://www.w3.org/1999/xlink" viewBox="0 0 500 500">
  <defs>
    <style>
      .cls-1 {
        fill: url(#_무제_그라디언트_117);
      }

      .cls-2 {
        fill: url(#_무제_그라디언트_141);
      }

      .cls-3 {
        fill: url(#_무제_그라디언트_66);
      }
    </style>
    <linearGradient id="_무제_그라디언트_117" data-name="무제 그라디언트 117" x1="250" y1="500" x2="250" y2="0" gradientUnits="userSpaceOnUse">
      <stop offset="0" stop-color="#a61955"/>
      <stop offset=".48" stop-color="#d06427"/>
      <stop offset=".83" stop-color="#eb940b"/>
      <stop offset="1" stop-color="#f6a700"/>
    </linearGradient>
    <linearGradient id="_무제_그라디언트_141" data-name="무제 그라디언트 141" x1="459.98" y1="390.85" x2="40.02" y2="390.85" gradientUnits="userSpaceOnUse">
      <stop offset="0" stop-color="#a61955" stop-opacity="0"/>
      <stop offset=".01" stop-color="#a91e51" stop-opacity=".04"/>
      <stop offset=".08" stop-color="#b93a40" stop-opacity=".24"/>
      <stop offset=".16" stop-color="#c75431" stop-opacity=".42"/>
      <stop offset=".24" stop-color="#d46a24" stop-opacity=".58"/>
      <stop offset=".33" stop-color="#de7d18" stop-opacity=".71"/>
      <stop offset=".42" stop-color="#e78c0f" stop-opacity=".81"/>
      <stop offset=".52" stop-color="#ed9808" stop-opacity=".9"/>
      <stop offset=".63" stop-color="#f2a003" stop-opacity=".96"/>
      <stop offset=".77" stop-color="#f5a500" stop-opacity=".99"/>
      <stop offset="1" stop-color="#f6a700"/>
    </linearGradient>
    <linearGradient id="_무제_그라디언트_66" data-name="무제 그라디언트 66" x1="377.61" y1="39.45" x2="345.37" y2="7.22" gradientUnits="userSpaceOnUse">
      <stop offset="0" stop-color="#a61955"/>
      <stop offset="1" stop-color="#f6a700"/>
    </linearGradient>
  </defs>
  <path class="cls-1" d="M388.09,41.58c-4.93,7.35-12.8,12.56-21.93,13.96v252.18h-9.83V55.54c-15.51-2.37-27.4-15.77-27.4-31.94,0-3.61.6-7.07,1.69-10.31C305.33,4.68,278.21,0,250,0,111.93,0,0,111.93,0,250s111.93,250,250,250,250-111.93,250-250c0-87.02-44.47-163.64-111.91-208.42ZM207.19,305.27c0,1.64-.68,2.45-2.04,2.45h-5.93c-1.5,0-2.25-.82-2.25-2.45v-72.35c0-6.4-1.63-11.38-4.91-14.92-3.27-3.54-8.04-5.31-14.31-5.31h-13.29c-6.54,0-11.69,1.74-15.43,5.21-3.75,3.47-5.62,8.41-5.62,14.82v72.56c0,1.64-.75,2.45-2.25,2.45h-5.93c-1.36,0-2.04-.82-2.04-2.45v-138.78c0-1.64.68-2.45,2.04-2.45h5.93c1.5,0,2.25.82,2.25,2.45v47.62h.82c3.81-7.08,10.9-10.63,21.26-10.63h13.49c8.72,0,15.6,2.59,20.64,7.77,5.04,5.18,7.56,12.26,7.56,21.26v72.76ZM276.6,304.87c0,1.79-1.11,2.89-2.9,2.89h-53.6c-1.91,0-3.05-1.08-3.05-2.89v-13.95c0-7.75,3.36-14.19,9.98-19.16l31.23-23.78c5.14-3.93,7.63-8.82,7.63-14.94v-6.18c0-9.47-4.55-14.07-13.91-14.07h-11.42c-9.26,0-13.76,4.6-13.76,14.07v7.14c0,1.91-1.08,3.05-2.89,3.05h-4.6c-1.81,0-2.89-1.14-2.89-3.05v-7.29c0-7.16,2.14-12.88,6.38-17,4.22-4.11,9.99-6.19,17.13-6.19h12.84c7.15,0,12.89,2.06,17.05,6.11,4.18,4.07,6.3,9.81,6.3,17.08v6.66c0,8.58-3.51,15.61-10.44,20.89l-31.55,24.26c-4.18,3.19-6.21,6.99-6.21,11.62v8.05h45.79c1.79,0,2.9,1.11,2.9,2.89v3.81ZM346.39,210.63c0,1.36-.75,2.04-2.25,2.04h-28.61c-6.27,0-11.04,1.77-14.31,5.31-3.27,3.54-4.91,8.52-4.91,14.92v45.37c0,6.41,1.64,11.38,4.91,14.92,3.27,3.54,8.04,5.31,14.31,5.31h28.61c1.5,0,2.25.75,2.25,2.25v4.7c0,1.5-.75,2.25-2.25,2.25h-29.43c-8.86,0-15.84-2.59-20.95-7.77-5.11-5.18-7.66-12.26-7.66-21.26v-46.19c0-8.99,2.55-16.08,7.66-21.26,5.11-5.18,12.09-7.77,20.95-7.77h29.43c1.5,0,2.25.75,2.25,2.25v4.9Z"/>
  <path class="cls-2" d="M381.57,427.1c36.96-27.75,64.75-67.24,78.24-111.19.65-2.11-.54-4.34-2.65-4.99-2.1-.65-4.34.54-4.99,2.65-13,42.35-39.77,80.4-75.4,107.15-36.83,27.65-80.7,42.26-126.89,42.26s-89.81-14.53-126.58-42.03c-35.55-26.59-62.36-64.45-75.47-106.62-.66-2.11-2.89-3.28-5-2.63-2.11.66-3.28,2.89-2.63,5,13.61,43.76,41.42,83.06,78.32,110.65,38.16,28.54,83.58,43.62,131.36,43.62s93.46-15.17,131.68-43.86Z"/>
  <circle class="cls-3" cx="361.49" cy="23.33" r="22.8"/>
</svg>